<svg xmlns="http://www.w3.org/2000/svg" version="1.1" xmlns:xlink="http://www.w3.org/1999/xlink" xmlns:svgjs="http://svgjs.dev/svgjs" width="1000" height="623" viewBox="0 0 1000 623"><g transform="matrix(1,0,0,1,-0.6060606060606233,0.2522267206477409)"><svg viewBox="0 0 396 247" data-background-color="#000000" preserveAspectRatio="xMidYMid meet" height="623" width="1000" xmlns="http://www.w3.org/2000/svg" xmlns:xlink="http://www.w3.org/1999/xlink"><g id="tight-bounds" transform="matrix(1,0,0,1,0.2400000000000091,-0.09999999999999432)"><svg viewBox="0 0 395.52 247.2" height="247.2" width="395.52"><g><svg></svg></g><g><svg viewBox="0 0 395.52 247.2" height="247.2" width="395.52"><g><path xmlns="http://www.w3.org/2000/svg" d="M55.039 247.2l26.403-45.732 2.576 0-25.045 43.379h277.574l-25.045-43.379 2.576 0 26.403 45.732zM197.76 0l26.403 45.732-2.575 0-23.828-41.271-23.828 41.271-2.575 0z" fill="#01ff70" fill-rule="nonzero" stroke="none" stroke-width="1" stroke-linecap="butt" stroke-linejoin="miter" stroke-miterlimit="10" stroke-dasharray="" stroke-dashoffset="0" font-family="none" font-weight="none" font-size="none" text-anchor="none" style="mix-blend-mode: normal" data-fill-palette-color="tertiary"></path></g><g transform="matrix(1,0,0,1,24.47655711176344,67.97999999999999)"><svg viewBox="0 0 346.5668857764731 111.24" height="111.24" width="346.5668857764731"><g><svg viewBox="0 0 397.49759999999986 127.58758796280162" height="111.24" width="346.5668857764731"><g><rect width="397.49759999999986" height="3.907839306160468" x="0" y="70.11652952868077" fill="#01ff70" opacity="1" stroke-width="0" stroke="transparent" fill-opacity="1" class="rect-o-0" data-fill-palette-color="secondary" rx="1%" id="o-0" data-palette-color="#01ff70"></rect></g><g transform="matrix(1,0,0,1,0.9887999999999693,84.25431466248645)"><svg viewBox="0 0 395.5199999999999 43.33327330031517" height="43.33327330031517" width="395.5199999999999"><g id="textblocktransform"><svg viewBox="0 0 395.5199999999999 43.33327330031517" height="43.33327330031517" width="395.5199999999999" id="textblock"><g><svg viewBox="0 0 395.5199999999999 43.33327330031517" height="43.33327330031517" width="395.5199999999999"><g transform="matrix(1,0,0,1,0,0)"><svg width="395.5199999999999" viewBox="2.299999952316284 -36.5 333.1300048828125 36.5" height="43.33327330031517" data-palette-color="#01ff70"><path d="M12-32.75L12-3.25 19.25-3.25Q21.95-3.25 23.85-4.05 25.75-4.85 27.05-6.55L27.05-6.55Q28.4-8.3 29.1-11.08 29.8-13.85 29.8-17.7L29.8-17.7Q29.8-25.25 27.05-29.05L27.05-29.05Q25.7-30.95 23.68-31.85 21.65-32.75 18.75-32.75L18.75-32.75 12-32.75ZM2.3-33.6L2.3-36 19.6-36Q27.05-36 31.2-31.8L31.2-31.8Q33.55-29.4 34.8-25.9 36.05-22.4 36.05-18.4L36.05-18.4Q36.05-14.2 34.73-10.53 33.4-6.85 31.05-4.35L31.05-4.35Q26.9 0 19.15 0L19.15 0 2.3 0 2.3-2.4 6.5-3.45 6.5-32.55 2.3-33.6ZM59.55-2.4L63.65-3.45 60.85-11.95 47.85-11.95 44.95-3.45 49.1-2.4 49.1 0 36.9 0 36.9-2.4 41-3.45 52.9-36.5 58.05-36.5 69.8-3.45 73.8-2.4 73.8 0 59.55 0 59.55-2.4ZM54.65-31.35L54.45-31.35 48.95-15.1 59.8-15.1 54.65-31.35ZM83.8-33.6L79.69-32.55 89.19-4.75 89.39-4.75 98.44-32.55 94.3-33.6 94.3-36 106.5-36 106.5-33.6 102.4-32.55 91.25 0 85.84 0 73.8-32.55 69.8-33.6 69.8-36 83.8-36 83.8-33.6ZM123.24-33.6L118.54-32.55 118.54-3.45 123.24-2.4 123.24 0 108.34 0 108.34-2.4 113.04-3.45 113.04-32.55 108.34-33.6 108.34-36 123.24-36 123.24-33.6ZM137.24-32.75L137.24-3.25 144.49-3.25Q147.19-3.25 149.09-4.05 150.99-4.85 152.29-6.55L152.29-6.55Q153.64-8.3 154.34-11.08 155.04-13.85 155.04-17.7L155.04-17.7Q155.04-25.25 152.29-29.05L152.29-29.05Q150.94-30.95 148.92-31.85 146.89-32.75 143.99-32.75L143.99-32.75 137.24-32.75ZM127.54-33.6L127.54-36 144.84-36Q152.29-36 156.44-31.8L156.44-31.8Q158.79-29.4 160.04-25.9 161.29-22.4 161.29-18.4L161.29-18.4Q161.29-14.2 159.97-10.53 158.64-6.85 156.29-4.35L156.29-4.35Q152.14 0 144.39 0L144.39 0 127.54 0 127.54-2.4 131.74-3.45 131.74-32.55 127.54-33.6ZM192.59-33.6L188.39-32.55 188.39-18.8 201.64-32.55 197.09-33.6 197.09-36 210.74-36 210.74-33.6 206.34-32.55 194.89-21.2 209.64-3.35 213.84-2.4 213.84 0 199.39 0 199.39-2.4 202.69-3.4 191.24-17.55 188.39-14.8 188.39-3.45 192.59-2.4 192.59 0 178.19 0 178.19-2.4 182.89-3.45 182.89-32.55 178.19-33.6 178.19-36 192.59-36 192.59-33.6ZM230.23-33.6L225.53-32.55 225.53-3.45 230.23-2.4 230.23 0 215.33 0 215.33-2.4 220.03-3.45 220.03-32.55 215.33-33.6 215.33-36 230.23-36 230.23-33.6ZM259.78-19.1L259.78-19.1Q258.88-18.4 257.71-17.85 256.53-17.3 254.78-16.95L254.78-16.95Q255.13-16.55 255.68-15.88 256.23-15.2 256.73-14.35L256.73-14.35 263.23-3.35 267.68-2.4 267.68 0 256.88 0 256.88-2.4 249.88-16 244.23-16 244.23-3.45 248.98-2.4 248.98 0 234.53 0 234.53-2.4 238.73-3.45 238.73-32.55 234.53-33.6 234.53-36 252.23-36Q254.63-36 256.43-35.55 258.23-35.1 259.68-34.1L259.68-34.1Q261.48-32.9 262.53-30.8 263.58-28.7 263.58-26.6L263.58-26.6Q263.58-24.5 262.56-22.48 261.53-20.45 259.78-19.1ZM244.23-32.85L244.23-19.15 250.88-19.15Q253.63-19.15 255.43-20.7L255.43-20.7Q256.43-21.6 257-23.1 257.58-24.6 257.58-26.3L257.58-26.3Q257.58-27.95 256.98-29.33 256.38-30.7 255.38-31.55L255.38-31.55Q254.53-32.25 253.41-32.55 252.28-32.85 250.68-32.85L250.68-32.85 244.23-32.85ZM298.18-27.35L298.18-27.35Q298.18-25.45 297.3-23.8 296.43-22.15 294.93-21.05 293.43-19.95 291.48-19.7L291.48-19.7 291.48-19.5Q295.38-18.7 297.63-16.2 299.88-13.7 299.88-10.05L299.88-10.05Q299.88-7.25 298.4-4.88 296.93-2.5 294.68-1.35L294.68-1.35Q293.28-0.65 291.23-0.33 289.18 0 285.48 0L285.48 0 270.03 0 270.03-2.4 274.23-3.45 274.23-32.55 270.03-33.6 270.03-36 287.33-36Q292.58-36 295.43-33.45L295.43-33.45Q296.73-32.25 297.45-30.65 298.18-29.05 298.18-27.35ZM285.63-17.2L285.63-17.2 279.73-17.2 279.73-3.25 284.73-3.25Q287.03-3.25 288.43-3.5 289.83-3.75 290.78-4.3L290.78-4.3Q292.13-5.05 292.98-6.63 293.83-8.2 293.83-10.4L293.83-10.4Q293.83-12.25 293.18-13.6 292.53-14.95 291.53-15.75L291.53-15.75Q290.63-16.5 289.23-16.85 287.83-17.2 285.63-17.2ZM285.68-32.85L279.73-32.85 279.73-20.35 285.48-20.35Q288.98-20.35 290.63-22.1L290.63-22.1Q291.38-22.9 291.93-24.08 292.48-25.25 292.48-26.75L292.48-26.75Q292.48-28.25 291.93-29.45 291.38-30.65 290.63-31.35L290.63-31.35Q289.13-32.85 285.68-32.85L285.68-32.85ZM311.07-32.55L319.27-17.25 327.63-32.55 323.57-33.6 323.57-36 335.43-36 335.43-33.6 331.32-32.55 321.27-14.1 321.27-3.45 325.97-2.4 325.97 0 311.07 0 311.07-2.4 315.77-3.45 315.77-13.3 305.13-32.55 300.97-33.6 300.97-36 315.27-36 315.27-33.6 311.07-32.55Z" opacity="1" transform="matrix(1,0,0,1,0,0)" fill="#01ff70" class="undefined-text-0" data-fill-palette-color="primary" id="text-0"></path></svg></g></svg></g></svg></g></svg></g><g transform="matrix(1,0,0,1,167.57920275398018,0)"><svg viewBox="0 0 62.339194492039475 59.88658370103557" height="59.88658370103557" width="62.339194492039475"><g><svg xmlns="http://www.w3.org/2000/svg" xmlns:xlink="http://www.w3.org/1999/xlink" version="1.1" x="8" y="0" viewBox="12.982999801635742 1 75.68599700927734 97.81300354003906" enable-background="new 0 0 100 100" xml:space="preserve" height="59.88658370103557" width="46.339194492039475" class="icon-icon-0" data-fill-palette-color="accent" id="icon-0"><g fill="#01ff70" data-fill-palette-color="accent"><polygon fill-rule="evenodd" clip-rule="evenodd" points="12.983,10.59 30.001,98.813 24.129,39.764 53.15,37.872 53.096,27.989    64.549,1 53.622,18.977  " fill="#01ff70" data-fill-palette-color="accent"></polygon><polygon fill-rule="evenodd" clip-rule="evenodd" points="59.389,54.548 64.549,1.007 55.809,40.723 36.197,41.768 37.767,62.23    30.001,98.813 42.058,58.914  " fill="#01ff70" data-fill-palette-color="accent"></polygon><polygon fill-rule="evenodd" clip-rule="evenodd" points="62.8,67.182 63.349,56.729 47.37,60.484 47.338,72.281 30.001,98.813    51.681,71.197  " fill="#01ff70" data-fill-palette-color="accent"></polygon><polygon fill-rule="evenodd" clip-rule="evenodd" points="65.711,62.394 80.552,57.663 82.061,45.131 66.162,47.226  " fill="#01ff70" data-fill-palette-color="accent"></polygon><polygon fill-rule="evenodd" clip-rule="evenodd" points="72.07,44.502 83.058,43.085 84.639,32.807 76.56,32.434 64.549,1    72.979,31.967  " fill="#01ff70" data-fill-palette-color="accent"></polygon><polygon fill-rule="evenodd" clip-rule="evenodd" points="87.413,31.294 88.669,21.788 79.125,19.094 64.549,1 79.032,23.437    78.61,30.437  " fill="#01ff70" data-fill-palette-color="accent"></polygon></g></svg></g></svg></g><g><rect width="75.91957045891046" height="3.907839306160468" y="54.9787443948751" x="229.91839724601968" fill="#01ff70" data-fill-palette-color="secondary"></rect><rect width="75.91957045891046" height="3.907839306160468" y="54.9787443948751" x="91.65963229506974" fill="#01ff70" data-fill-palette-color="secondary"></rect></g></svg></g></svg></g></svg></g><defs></defs></svg><rect width="395.52" height="247.2" fill="none" stroke="none" visibility="hidden"></rect></g></svg></g></svg>